<?xml version="1.0" encoding="UTF-8" standalone="no"?>
<svg
   viewBox="0 0 230 130"
   version="1.1"
   id="svg6"
   sodipodi:docname="logo_w_text.svg"
   inkscape:version="1.2.2 (732a01da63, 2022-12-09)"
   width="230"
   height="130"
   inkscape:export-filename="logo.png"
   inkscape:export-xdpi="854.81738"
   inkscape:export-ydpi="854.81738"
   xmlns:inkscape="http://www.inkscape.org/namespaces/inkscape"
   xmlns:sodipodi="http://sodipodi.sourceforge.net/DTD/sodipodi-0.dtd"
   xmlns:xlink="http://www.w3.org/1999/xlink"
   xmlns="http://www.w3.org/2000/svg"
   xmlns:svg="http://www.w3.org/2000/svg">
  <defs
     id="defs10">
    <linearGradient
       inkscape:collect="always"
       id="linearGradient5666">
      <stop
         style="stop-color:#112656;stop-opacity:1;"
         offset="0"
         id="stop5662" />
      <stop
         style="stop-color:#fd9803;stop-opacity:1;"
         offset="1"
         id="stop5664" />
    </linearGradient>
    <linearGradient
       inkscape:collect="always"
       xlink:href="#linearGradient5666"
       id="linearGradient5668"
       x1="7.2860718e-07"
       y1="115.63366"
       x2="230"
       y2="115.63366"
       gradientUnits="userSpaceOnUse" />
  </defs>
  <sodipodi:namedview
     id="namedview8"
     pagecolor="#505050"
     bordercolor="#eeeeee"
     borderopacity="1"
     inkscape:showpageshadow="0"
     inkscape:pageopacity="0"
     inkscape:pagecheckerboard="0"
     inkscape:deskcolor="#505050"
     showgrid="false"
     inkscape:zoom="2"
     inkscape:cx="119.25"
     inkscape:cy="-7.5"
     inkscape:window-width="1920"
     inkscape:window-height="1017"
     inkscape:window-x="-8"
     inkscape:window-y="-8"
     inkscape:window-maximized="1"
     inkscape:current-layer="svg6" />
  <path
     d="M 70,45.252407 V 4.1664592 C 70,0.84252982 70.519856,0.21043832 73.823105,0.73354853 78.976861,1.5567714 84.084786,2.6480461 89.126354,4.0029873 100.14079,6.9454822 110.787,10.825216 120.63177,16.710206 c 9.0072,5.183947 16.90908,12.10574 23.25271,20.368604 C 154.8231,51.791284 159.8917,68.356441 160,86.589011 c 0,3.465605 -0.41155,3.836141 -3.90975,3.934224 -8.12274,0.217963 -16.24549,0.09048 -24.33574,0.04689 -2.16606,0 -2.7509,-1.572623 -2.76173,-3.545184 -0.077,-12.095952 -2.99552,-23.120802 -8.60242,-34.441767 -5.24342,-9.131943 -9.1339,-14.981837 -20.1411,-19.462667 -1.466369,-0.596932 -3.032654,-0.760762 -3.119296,0.961142 v 51.341267 c 0,4.511825 -0.541516,5.078528 -4.916968,5.089426 H 73.801444 C 70.465704,90.479643 70,89.989227 70,86.665298 Z"
     fill="#112656"
     id="path2"
     style="fill:#6d82ff;fill-opacity:1;stroke-width:1.08642"
     sodipodi:nodetypes="cscccccccccscsccsc" />
  <path
     d="M 159.8917,32.545188 V 35.5 48.225084 58.384652 c 0,1.373165 0.31408,3.650874 -1.213,3.705364 -1.32043,0.04712 -1.90047,-2.391426 -2.24652,-4.010335 -0.22348,-0.690165 -1.17533,-3.739939 -2.55656,-6.597634 -0.22418,-0.464762 -2.08455,-4.347585 -2.27186,-4.72108 -1.11729,-2.227802 -1.59377,-3.085112 -4.0167,-6.699526 -3.49191,-4.963713 -7.70589,-10.478769 -12.31431,-14.55697 -0.96537,-0.812623 -2.38044,-2.465562 -2.41351,-3.731618 l -0.1069,-18.3687398 c -0.0112,-1.9180382 0.81227,-2.8335136 2.7509,-2.8335136 h 21.08664 c 2.51264,0 3.2491,1.3731643 3.2491,3.6399752 -0.0375,6.0408172 0.002,13.1329952 0.0302,19.8159892 0.0124,2.962341 0.0225,5.844285 0.0225,8.518624 z"
     fill="#fd9803"
     id="path4"
     style="fill:#fd983a;fill-opacity:1;stroke-width:1.08642"
     sodipodi:nodetypes="cccssccscccssscscc" />
  <text
     xml:space="preserve"
     style="font-style:normal;font-variant:normal;font-weight:500;font-stretch:normal;font-size:43.2982px;font-family:Kanit;-inkscape-font-specification:'Kanit Medium';fill:#6d82ff;fill-opacity:1;stroke-width:3.60818"
     x="-2.4679966"
     y="129.57568"
     id="text788"><tspan
       id="tspan786"
       x="-2.4679966"
       y="129.57568"
       sodipodi:role="line"
       style="fill:#6d82ff;fill-opacity:1;stroke-width:3.60818">NOTE NOOK</tspan></text>
  <text
     xml:space="preserve"
     style="font-style:normal;font-variant:normal;font-weight:500;font-stretch:normal;font-size:43.2982px;font-family:Kanit;-inkscape-font-specification:'Kanit Medium';fill:#fd983a;fill-opacity:1"
     x="-2.4679966"
     y="129.57568"
     id="text5900"><tspan
       sodipodi:role="line"
       id="tspan5898"
       x="-2.4679966"
       y="129.57568"
       style="font-size:43.2982px;fill:#fd983a;fill-opacity:1">NOTE</tspan></text>
</svg>
